<?xml version="1.0" encoding="UTF-8"?>
<svg id="_圖層_1" data-name="圖層_1" xmlns="http://www.w3.org/2000/svg" version="1.1" viewBox="0 0 1000 1000">
  <!-- Generator: Adobe Illustrator 29.1.0, SVG Export Plug-In . SVG Version: 2.1.0 Build 142)  -->
  <defs>
    <style>
      .st0 {
        opacity: .25;
      }

      .st0, .st1 {
        fill: #231815;
      }
    </style>
  </defs>
  <path class="st1" d="M636.35,592.64c-.9,48.6-40.56,88.26-89.16,89.16-51.58.96-93.58-41.04-92.62-92.62.9-48.6,40.56-88.26,89.16-89.16,51.57-.96,93.57,41.05,92.62,92.62Z"/>
  <path class="st1" d="M748.84,538.27l-90.91-272.73c-3.1-9.28-11.78-15.54-21.56-15.54h-272.73c-9.78,0-18.47,6.26-21.56,15.54l-90.91,272.73c-1.9,5.71-1.47,11.96,1.23,17.35l90.91,181.82c3.85,7.7,11.72,12.56,20.33,12.56h272.73c8.61,0,16.47-4.86,20.33-12.56l90.9-181.82c2.7-5.39,3.14-11.64,1.24-17.35ZM405.78,727.28c-25.83,0-49.44-14.6-60.98-37.7l-59.44-118.87c-8.08-16.17-9.42-34.89-3.7-52.04l66.44-199.32c9.28-27.84,35.33-46.62,64.69-46.62h45.45c-29.35,0-55.41,18.78-64.69,46.62l-66.44,199.32c-5.72,17.15-4.38,35.87,3.7,52.04l59.44,118.87c11.54,23.1,35.15,37.7,60.98,37.7h-45.45ZM714.65,570.72l-59.44,118.86c-11.55,23.1-35.16,37.7-60.98,37.7h-97.54c-25.83,0-49.44-14.6-60.99-37.7l-59.43-118.86c-8.08-16.18-9.42-34.9-3.7-52.05l66.43-199.32c9.29-27.84,35.34-46.62,64.7-46.62h83.52c29.35,0,55.4,18.78,64.68,46.62l37.49,112.47h-75.75c-12.54,0-22.74-10.14-22.73-22.68.03-25.13-20.33-45.5-45.45-45.5s-45.87,20.77-45.45,46.23c.41,24.92,21.27,44.68,46.19,44.68h101.63c29.35,0,55.4,18.78,64.68,46.62l5.84,17.5c5.72,17.15,4.38,35.87-3.7,52.05Z"/>
  <path class="st0" d="M718.35,518.67l-5.84-17.5c-9.28-27.84-35.33-46.62-64.68-46.62h-101.63c-24.92,0-45.78-19.76-46.19-44.68-.42-25.46,20.09-46.23,45.45-46.23s45.48,20.37,45.45,45.5c-.01,12.54,10.19,22.68,22.73,22.68h75.75l-37.49-112.47c-9.28-27.84-35.33-46.62-64.68-46.62h-83.52c-29.36,0-55.41,18.78-64.7,46.62l-66.43,199.32c-5.72,17.15-4.38,35.87,3.7,52.05l59.43,118.86c11.55,23.1,35.16,37.7,60.99,37.7h97.54c25.82,0,49.43-14.6,60.98-37.7l59.44-118.86c8.08-16.18,9.42-34.9,3.7-52.05ZM636.35,592.64c-.9,48.6-40.56,88.26-89.16,89.16-51.58.96-93.58-41.04-92.62-92.62.9-48.6,40.56-88.26,89.16-89.16,51.57-.96,93.57,41.05,92.62,92.62Z"/>
  <path class="st0" d="M451.23,727.28h-45.45c-25.83,0-49.44-14.6-60.98-37.7l-59.44-118.87c-8.08-16.17-9.42-34.89-3.7-52.04l66.44-199.32c9.28-27.84,35.33-46.62,64.69-46.62h45.45c-29.35,0-55.41,18.78-64.69,46.62l-66.44,199.32c-5.72,17.15-4.38,35.87,3.7,52.04l59.44,118.87c11.54,23.1,35.15,37.7,60.98,37.7Z"/>
</svg>