<?xml version="1.0" encoding="UTF-8"?>
<svg id="_圖層_1" data-name="圖層_1" xmlns="http://www.w3.org/2000/svg" version="1.1" viewBox="0 0 1000 1000">
  <!-- Generator: Adobe Illustrator 29.1.0, SVG Export Plug-In . SVG Version: 2.1.0 Build 142)  -->
  <defs>
    <style>
      .st0 {
        opacity: .25;
      }

      .st0, .st1 {
        fill: #231815;
      }
    </style>
  </defs>
  <path class="st1" d="M302.59,537.06c-.36,19.44-16.22,35.3-35.66,35.66-20.63.38-37.43-16.42-37.05-37.04.36-19.45,16.23-35.31,35.67-35.67,20.62-.39,37.42,16.42,37.04,37.05Z"/>
  <path class="st1" d="M347.59,515.31l-36.36-109.09c-1.24-3.72-4.72-6.22-8.63-6.22h-109.09c-3.91,0-7.39,2.5-8.63,6.22l-36.36,109.09c-.76,2.29-.59,4.78.49,6.94l36.37,72.73c1.54,3.08,4.69,5.02,8.13,5.02h109.09c3.44,0,6.59-1.94,8.13-5.02l36.36-72.73c1.08-2.16,1.26-4.65.5-6.94ZM210.36,590.91c-10.33,0-19.77-5.83-24.39-15.07l-23.77-47.55c-3.24-6.47-3.77-13.96-1.48-20.82l26.57-79.73c3.71-11.13,14.14-18.65,25.88-18.65h18.18c-11.74,0-22.16,7.52-25.88,18.65l-26.57,79.73c-2.29,6.86-1.75,14.35,1.48,20.82l23.77,47.55c4.62,9.24,14.06,15.07,24.4,15.07h-18.19ZM333.91,528.29l-23.77,47.55c-4.62,9.24-14.07,15.07-24.39,15.07h-39.02c-10.33,0-19.78-5.83-24.4-15.07l-23.77-47.55c-3.23-6.47-3.77-13.96-1.48-20.82l26.57-79.73c3.72-11.13,14.14-18.65,25.88-18.65h33.41c11.74,0,22.16,7.52,25.87,18.65l15,44.99h-30.3c-5.02,0-9.1-4.06-9.09-9.07.01-10.05-8.14-18.2-18.18-18.2s-18.35,8.31-18.18,18.49c.16,9.97,8.5,17.87,18.47,17.87h40.66c11.73,0,22.16,7.51,25.87,18.65l2.33,7c2.29,6.86,1.76,14.35-1.48,20.82Z"/>
  <path class="st0" d="M335.39,507.47l-2.33-7c-3.71-11.14-14.14-18.65-25.87-18.65h-40.66c-9.97,0-18.31-7.9-18.47-17.87-.17-10.18,8.03-18.49,18.18-18.49s18.19,8.15,18.18,18.2c-.01,5.01,4.07,9.07,9.09,9.07h30.3l-15-44.99c-3.71-11.13-14.13-18.65-25.87-18.65h-33.41c-11.74,0-22.16,7.52-25.88,18.65l-26.57,79.73c-2.29,6.86-1.75,14.35,1.48,20.82l23.77,47.55c4.62,9.24,14.07,15.07,24.4,15.07h39.02c10.32,0,19.77-5.83,24.39-15.07l23.77-47.55c3.24-6.47,3.77-13.96,1.48-20.82ZM266.93,572.72c-20.63.38-37.43-16.42-37.05-37.04.36-19.45,16.23-35.31,35.67-35.67,20.62-.39,37.42,16.42,37.04,37.05-.36,19.44-16.22,35.3-35.66,35.66Z"/>
  <path class="st0" d="M228.55,590.91h-18.19c-10.33,0-19.77-5.83-24.39-15.07l-23.77-47.55c-3.24-6.47-3.77-13.96-1.48-20.82l26.57-79.73c3.71-11.13,14.14-18.65,25.88-18.65h18.18c-11.74,0-22.16,7.52-25.88,18.65l-26.57,79.73c-2.29,6.86-1.75,14.35,1.48,20.82l23.77,47.55c4.62,9.24,14.06,15.07,24.4,15.07Z"/>
  <path class="st1" d="M520.27,484.95h-78.5c-2.53,0-4.58-2.05-4.58-4.58v-39.25c0-2.53,2.05-4.58,4.58-4.58h78.5c2.53,0,4.58,2.05,4.58,4.58v39.25c0,2.53-2.05,4.58-4.58,4.58ZM446.34,475.8h69.35v-30.09h-69.35v30.09Z"/>
  <path class="st1" d="M579.15,491.5c-2.53,0-4.58-2.05-4.58-4.58s2.05-4.58,4.58-4.58c14.12,0,27.87-4.94,38.73-13.92,10.72-8.86,18.14-21.2,20.89-34.75.5-2.48,2.92-4.08,5.4-3.58,2.48.5,4.08,2.92,3.58,5.4-3.17,15.59-11.7,29.79-24.03,39.98-12.5,10.33-28.33,16.02-44.57,16.02Z"/>
  <path class="st1" d="M611.86,570c-2.53,0-4.58-2.05-4.58-4.58v-78.5c0-2.53,2.05-4.58,4.58-4.58h26.17c2.53,0,4.58,2.05,4.58,4.58s-2.05,4.58-4.58,4.58h-21.59v73.92c0,2.53-2.05,4.58-4.58,4.58Z"/>
  <path class="st1" d="M651.11,570c-2.53,0-4.58-2.05-4.58-4.58s2.05-4.58,4.58-4.58c8.3,0,15.05-6.75,15.05-15.05v-54.3h-28.13c-2.53,0-4.58-2.05-4.58-4.58s2.05-4.58,4.58-4.58h32.71c2.53,0,4.58,2.05,4.58,4.58v58.88c0,13.35-10.86,24.21-24.21,24.21Z"/>
  <path class="st1" d="M651.11,517.66h-39.25c-2.53,0-4.58-2.05-4.58-4.58s2.05-4.58,4.58-4.58h39.25c2.53,0,4.58,2.05,4.58,4.58s-2.05,4.58-4.58,4.58Z"/>
  <path class="st1" d="M651.11,537.29h-39.25c-2.53,0-4.58-2.05-4.58-4.58s2.05-4.58,4.58-4.58h39.25c2.53,0,4.58,2.05,4.58,4.58s-2.05,4.58-4.58,4.58Z"/>
  <path class="st1" d="M670.74,471.87h-78.5c-2.53,0-4.58-2.05-4.58-4.58s2.05-4.58,4.58-4.58h78.5c2.53,0,4.58,2.05,4.58,4.58s-2.05,4.58-4.58,4.58Z"/>
  <path class="st1" d="M690.36,471.87c-2.53,0-4.58-2.05-4.58-4.58v-15.05h-88.97v15.05c0,2.53-2.05,4.58-4.58,4.58s-4.58-2.05-4.58-4.58v-19.63c0-2.53,2.05-4.58,4.58-4.58h98.13c2.53,0,4.58,2.05,4.58,4.58v19.63c0,2.53-2.05,4.58-4.58,4.58Z"/>
  <path class="st1" d="M500.64,484.95h-39.25c-13.35,0-24.21-10.86-24.21-24.21s10.86-24.21,24.21-24.21h39.25c13.35,0,24.21,10.86,24.21,24.21s-10.86,24.21-24.21,24.21ZM461.39,445.7c-8.3,0-15.05,6.75-15.05,15.05s6.75,15.05,15.05,15.05h39.25c8.3,0,15.05-6.75,15.05-15.05s-6.75-15.05-15.05-15.05h-39.25Z"/>
  <path class="st1" d="M690.36,471.87c-2.53,0-4.58-2.05-4.58-4.58,0-8.3-7.38-15.05-16.45-15.05h-56.07c-9.07,0-16.45,6.75-16.45,15.05,0,2.53-2.05,4.58-4.58,4.58s-4.58-2.05-4.58-4.58c0-13.35,11.49-24.21,25.61-24.21h56.07c14.12,0,25.61,10.86,25.61,24.21,0,2.53-2.05,4.58-4.58,4.58Z"/>
  <path class="st1" d="M507.18,570h-52.34c-13.35,0-24.21-10.86-24.21-24.21v-26.17c0-13.35,10.86-24.21,24.21-24.21h52.34c13.35,0,24.21,10.86,24.21,24.21v26.17c0,13.35-10.86,24.21-24.21,24.21ZM454.85,504.58c-8.3,0-15.05,6.75-15.05,15.05v26.17c0,8.3,6.75,15.05,15.05,15.05h52.34c8.3,0,15.05-6.75,15.05-15.05v-26.17c0-8.3-6.75-15.05-15.05-15.05h-52.34Z"/>
  <path class="st1" d="M670.74,511.12c-2.53,0-4.58-2.05-4.58-4.58,0-8.3-6.75-15.05-15.05-15.05h-6.54c-2.53,0-4.58-2.05-4.58-4.58s2.05-4.58,4.58-4.58h6.54c13.35,0,24.21,10.86,24.21,24.21,0,2.53-2.05,4.58-4.58,4.58Z"/>
  <path class="st1" d="M611.86,511.12c-2.53,0-4.58-2.05-4.58-4.58,0-13.35,10.86-24.21,24.21-24.21h6.54c2.53,0,4.58,2.05,4.58,4.58s-2.05,4.58-4.58,4.58h-6.54c-8.3,0-15.05,6.75-15.05,15.05,0,2.53-2.05,4.58-4.58,4.58Z"/>
  <path class="st1" d="M526.81,570h-91.59c-2.53,0-4.58-2.05-4.58-4.58v-65.42c0-2.53,2.05-4.58,4.58-4.58h91.59c2.53,0,4.58,2.05,4.58,4.58v65.42c0,2.53-2.05,4.58-4.58,4.58ZM439.8,560.84h82.43v-56.26h-82.43v56.26Z"/>
  <path class="st1" d="M454.85,504.58c-1.78,0-3.47-1.04-4.21-2.78-1-2.32.08-5.02,2.41-6.01l45.79-19.63c2.32-1,5.02.08,6.01,2.41,1,2.32-.08,5.02-2.41,6.01l-45.79,19.63c-.59.25-1.2.37-1.8.37Z"/>
  <path class="st1" d="M840.83,452.24h-58.88c-2.53,0-4.58-2.05-4.58-4.58s2.05-4.58,4.58-4.58h58.88c2.53,0,4.58,2.05,4.58,4.58s-2.05,4.58-4.58,4.58Z"/>
  <path class="st1" d="M825.78,488.88v4.58c0,2.53-2.05,4.58-4.58,4.58s-4.58-2.05-4.58-4.58v-4.58h9.16Z"/>
  <path class="st1" d="M815.97,434.58v28.13h-.44c-.73,1.55-2.31,2.62-4.14,2.62s-3.41-1.07-4.14-2.62h-.44v-28.13c0-2.53,2.05-4.58,4.58-4.58s4.58,2.05,4.58,4.58Z"/>
  <path class="st1" d="M840.83,517.66h-58.88c-2.53,0-4.58-2.05-4.58-4.58s2.05-4.58,4.58-4.58h58.88c2.53,0,4.58,2.05,4.58,4.58s-2.05,4.58-4.58,4.58Z"/>
  <path class="st1" d="M768.87,556.92c-2.53,0-4.58-2.05-4.58-4.58s2.05-4.58,4.58-4.58c11.9,0,21.59-9.68,21.59-21.59,0-2.53,2.05-4.58,4.58-4.58s4.58,2.05,4.58,4.58c0,16.95-13.79,30.75-30.75,30.75Z"/>
  <path class="st1" d="M834.29,570c-24.17,0-43.83-19.66-43.83-43.83,0-2.53,2.05-4.58,4.58-4.58s4.58,2.05,4.58,4.58c0,19.12,15.55,34.67,34.67,34.67,2.53,0,4.58,2.05,4.58,4.58s-2.05,4.58-4.58,4.58Z"/>
  <path class="st1" d="M834.29,537.29h-22.9c-2.53,0-4.58-2.05-4.58-4.58s2.05-4.58,4.58-4.58h22.9c2.53,0,4.58,2.05,4.58,4.58s-2.05,4.58-4.58,4.58Z"/>
  <path class="st1" d="M847.37,550.37h-13.08c-2.53,0-4.58-2.05-4.58-4.58v-13.08c0-2.53,2.05-4.58,4.58-4.58s4.58,2.05,4.58,4.58c0,4.69,3.82,8.5,8.5,8.5,2.53,0,4.58,2.05,4.58,4.58s-2.05,4.58-4.58,4.58Z"/>
  <path class="st1" d="M742.7,465.33c-2.53,0-4.58-2.05-4.58-4.58s2.05-4.58,4.58-4.58c11.9,0,21.59-9.68,21.59-21.59,0-2.53,2.05-4.58,4.58-4.58s4.58,2.05,4.58,4.58c0,16.95-13.79,30.75-30.75,30.75Z"/>
  <path class="st1" d="M762.32,570c-2.53,0-4.58-2.05-4.58-4.58v-75.93c-4.88,1.34-9.91,2.01-15.05,2.01-2.53,0-4.58-2.05-4.58-4.58s2.05-4.58,4.58-4.58c6.2,0,12.22-1.17,17.91-3.47,1.41-.57,3.01-.4,4.28.45,1.26.85,2.02,2.27,2.02,3.8v82.31c0,2.53-2.05,4.58-4.58,4.58Z"/>
  <path class="st1" d="M798.3,452.24c-2.53,0-4.58-2.05-4.58-4.58s2.05-4.58,4.58-4.58c4.69,0,8.5-3.82,8.5-8.5,0-2.53,2.05-4.58,4.58-4.58s4.58,2.05,4.58,4.58c0,9.74-7.92,17.66-17.66,17.66Z"/>
  <path class="st1" d="M829.05,447.67c0,2.53-2.05,4.58-4.57,4.58-4.69,0-8.51,3.81-8.51,8.5,0,.7-.16,1.37-.44,1.96-.73,1.55-2.31,2.62-4.14,2.62s-3.41-1.07-4.14-2.62c-.28-.59-.44-1.26-.44-1.96,0-3.08.79-5.98,2.18-8.5,1.62-2.93,4.05-5.36,6.98-6.98,2.53-1.39,5.43-2.18,8.51-2.18,2.52,0,4.57,2.05,4.57,4.58Z"/>
  <path class="st1" d="M762.32,511.12c-2.53,0-4.58-2.05-4.58-4.58,0-8.3-6.75-15.05-15.05-15.05-2.53,0-4.58-2.05-4.58-4.58s2.05-4.58,4.58-4.58c13.35,0,24.21,10.86,24.21,24.21,0,2.53-2.05,4.58-4.58,4.58Z"/>
  <path class="st1" d="M827.75,462.71h-32.71c-9.74,0-17.67,7.93-17.67,17.67s7.93,17.66,17.67,17.66h32.71c9.74,0,17.66-7.92,17.66-17.66s-7.92-17.67-17.66-17.67ZM791.76,485.61c-2.89,0-5.23-2.34-5.23-5.23s2.34-5.23,5.23-5.23,5.23,2.34,5.23,5.23-2.34,5.23-5.23,5.23ZM811.39,488.88c-4.7,0-8.5-3.81-8.5-8.5s3.81-8.5,8.5-8.5,8.5,3.81,8.5,8.5-3.81,8.5-8.5,8.5ZM831.01,485.61c-2.89,0-5.23-2.34-5.23-5.23s2.34-5.23,5.23-5.23,5.23,2.34,5.23,5.23-2.34,5.23-5.23,5.23Z"/>
</svg>