<?xml version="1.0" encoding="UTF-8"?>
<svg id="_圖層_1" data-name="圖層_1" xmlns="http://www.w3.org/2000/svg" version="1.1" viewBox="0 0 1000 1000">
  <!-- Generator: Adobe Illustrator 29.1.0, SVG Export Plug-In . SVG Version: 2.1.0 Build 142)  -->
  <defs>
    <style>
      .st0 {
        fill: #231815;
      }
    </style>
  </defs>
  <path class="st0" d="M327.11,478.51h-112.15c-3.61,0-6.54-2.93-6.54-6.54v-56.07c0-3.61,2.93-6.54,6.54-6.54h112.15c3.61,0,6.54,2.93,6.54,6.54v56.07c0,3.61-2.93,6.54-6.54,6.54ZM221.5,465.42h99.06v-42.99h-99.06v42.99Z"/>
  <path class="st0" d="M411.22,487.85c-3.61,0-6.54-2.93-6.54-6.54s2.93-6.54,6.54-6.54c20.17,0,39.82-7.06,55.33-19.89,15.32-12.66,25.91-30.29,29.84-49.64.72-3.54,4.17-5.83,7.71-5.11,3.54.72,5.83,4.17,5.11,7.71-4.52,22.27-16.71,42.56-34.33,57.12-17.85,14.76-40.47,22.88-63.67,22.88Z"/>
  <path class="st0" d="M457.95,600c-3.61,0-6.54-2.93-6.54-6.54v-112.15c0-3.61,2.93-6.54,6.54-6.54h37.38c3.61,0,6.54,2.93,6.54,6.54s-2.93,6.54-6.54,6.54h-30.84v105.6c0,3.61-2.93,6.54-6.54,6.54Z"/>
  <path class="st0" d="M514.02,600c-3.61,0-6.54-2.93-6.54-6.54s2.93-6.54,6.54-6.54c11.85,0,21.49-9.64,21.49-21.49v-77.57h-40.19c-3.61,0-6.54-2.93-6.54-6.54s2.93-6.54,6.54-6.54h46.73c3.61,0,6.54,2.93,6.54,6.54v84.11c0,19.07-15.51,34.58-34.58,34.58Z"/>
  <path class="st0" d="M514.02,525.24h-56.07c-3.61,0-6.54-2.93-6.54-6.54s2.93-6.54,6.54-6.54h56.07c3.61,0,6.54,2.93,6.54,6.54s-2.93,6.54-6.54,6.54Z"/>
  <path class="st0" d="M514.02,553.27h-56.07c-3.61,0-6.54-2.93-6.54-6.54s2.93-6.54,6.54-6.54h56.07c3.61,0,6.54,2.93,6.54,6.54s-2.93,6.54-6.54,6.54Z"/>
  <path class="st0" d="M542.05,459.82h-112.15c-3.61,0-6.54-2.93-6.54-6.54s2.93-6.54,6.54-6.54h112.15c3.61,0,6.54,2.93,6.54,6.54s-2.93,6.54-6.54,6.54Z"/>
  <path class="st0" d="M570.09,459.82c-3.61,0-6.54-2.93-6.54-6.54v-21.49h-127.1v21.49c0,3.61-2.93,6.54-6.54,6.54s-6.54-2.93-6.54-6.54v-28.04c0-3.61,2.93-6.54,6.54-6.54h140.18c3.61,0,6.54,2.93,6.54,6.54v28.04c0,3.61-2.93,6.54-6.54,6.54Z"/>
  <path class="st0" d="M299.07,478.51h-56.07c-19.07,0-34.58-15.51-34.58-34.58s15.51-34.58,34.58-34.58h56.07c19.07,0,34.58,15.51,34.58,34.58s-15.51,34.58-34.58,34.58ZM243,422.43c-11.85,0-21.49,9.64-21.49,21.49s9.64,21.49,21.49,21.49h56.07c11.85,0,21.49-9.64,21.49-21.49s-9.64-21.49-21.49-21.49h-56.07Z"/>
  <path class="st0" d="M570.09,459.82c-3.61,0-6.54-2.93-6.54-6.54,0-11.85-10.54-21.49-23.5-21.49h-80.1c-12.96,0-23.5,9.64-23.5,21.49,0,3.61-2.93,6.54-6.54,6.54s-6.54-2.93-6.54-6.54c0-19.07,16.41-34.58,36.58-34.58h80.1c20.17,0,36.58,15.51,36.58,34.58,0,3.61-2.93,6.54-6.54,6.54Z"/>
  <path class="st0" d="M308.42,600h-74.76c-19.07,0-34.58-15.51-34.58-34.58v-37.38c0-19.07,15.51-34.58,34.58-34.58h74.76c19.07,0,34.58,15.51,34.58,34.58v37.38c0,19.07-15.51,34.58-34.58,34.58ZM233.65,506.54c-11.85,0-21.49,9.64-21.49,21.49v37.38c0,11.85,9.64,21.49,21.49,21.49h74.76c11.85,0,21.49-9.64,21.49-21.49v-37.38c0-11.85-9.64-21.49-21.49-21.49h-74.76Z"/>
  <path class="st0" d="M542.05,515.89c-3.61,0-6.54-2.93-6.54-6.54,0-11.85-9.64-21.49-21.49-21.49h-9.35c-3.61,0-6.54-2.93-6.54-6.54s2.93-6.54,6.54-6.54h9.35c19.07,0,34.58,15.51,34.58,34.58,0,3.61-2.93,6.54-6.54,6.54Z"/>
  <path class="st0" d="M457.95,515.89c-3.61,0-6.54-2.93-6.54-6.54,0-19.07,15.51-34.58,34.58-34.58h9.35c3.61,0,6.54,2.93,6.54,6.54s-2.93,6.54-6.54,6.54h-9.35c-11.85,0-21.49,9.64-21.49,21.49,0,3.61-2.93,6.54-6.54,6.54Z"/>
  <path class="st0" d="M336.45,600h-130.84c-3.61,0-6.54-2.93-6.54-6.54v-93.46c0-3.61,2.93-6.54,6.54-6.54h130.84c3.61,0,6.54,2.93,6.54,6.54v93.46c0,3.61-2.93,6.54-6.54,6.54ZM212.16,586.92h117.75v-80.37h-117.75v80.37Z"/>
  <path class="st0" d="M233.66,506.55c-2.54,0-4.95-1.49-6.02-3.97-1.42-3.32.11-7.17,3.44-8.59l65.42-28.04c3.32-1.42,7.17.11,8.59,3.44,1.42,3.32-.11,7.17-3.44,8.59l-65.42,28.04c-.84.36-1.71.53-2.57.53Z"/>
  <path class="st0" d="M785.04,431.78h-84.11c-3.61,0-6.54-2.93-6.54-6.54s2.93-6.54,6.54-6.54h84.11c3.61,0,6.54,2.93,6.54,6.54s-2.93,6.54-6.54,6.54Z"/>
  <path class="st0" d="M763.54,484.11v6.54c0,3.61-2.93,6.54-6.54,6.54s-6.54-2.93-6.54-6.54v-6.54h13.09Z"/>
  <path class="st0" d="M749.53,406.54v40.19h-.63c-1.04,2.21-3.3,3.74-5.91,3.74s-4.87-1.53-5.91-3.74h-.63v-40.19c0-3.61,2.93-6.54,6.54-6.54s6.54,2.93,6.54,6.54Z"/>
  <path class="st0" d="M785.04,525.24h-84.11c-3.61,0-6.54-2.93-6.54-6.54s2.93-6.54,6.54-6.54h84.11c3.61,0,6.54,2.93,6.54,6.54s-2.93,6.54-6.54,6.54Z"/>
  <path class="st0" d="M682.24,581.31c-3.61,0-6.54-2.93-6.54-6.54s2.93-6.54,6.54-6.54c17,0,30.84-13.83,30.84-30.84,0-3.61,2.93-6.54,6.54-6.54s6.54,2.93,6.54,6.54c0,24.22-19.7,43.92-43.92,43.92Z"/>
  <path class="st0" d="M775.69,600c-34.53,0-62.62-28.09-62.62-62.62,0-3.61,2.93-6.54,6.54-6.54s6.54,2.93,6.54,6.54c0,27.31,22.22,49.53,49.53,49.53,3.61,0,6.54,2.93,6.54,6.54s-2.93,6.54-6.54,6.54Z"/>
  <path class="st0" d="M775.69,553.27h-32.71c-3.61,0-6.54-2.93-6.54-6.54s2.93-6.54,6.54-6.54h32.71c3.61,0,6.54,2.93,6.54,6.54s-2.93,6.54-6.54,6.54Z"/>
  <path class="st0" d="M794.38,571.96h-18.69c-3.61,0-6.54-2.93-6.54-6.54v-18.69c0-3.61,2.93-6.54,6.54-6.54s6.54,2.93,6.54,6.54c0,6.7,5.45,12.15,12.15,12.15,3.61,0,6.54,2.93,6.54,6.54s-2.93,6.54-6.54,6.54Z"/>
  <path class="st0" d="M644.86,450.47c-3.61,0-6.54-2.93-6.54-6.54s2.93-6.54,6.54-6.54c17.01,0,30.84-13.84,30.84-30.84,0-3.61,2.93-6.54,6.54-6.54s6.54,2.93,6.54,6.54c0,24.22-19.7,43.92-43.92,43.92Z"/>
  <path class="st0" d="M672.89,600c-3.61,0-6.54-2.93-6.54-6.54v-108.48c-6.96,1.91-14.16,2.87-21.5,2.87-3.61,0-6.54-2.93-6.54-6.54s2.93-6.54,6.54-6.54c8.85,0,17.46-1.67,25.58-4.96,2.02-.82,4.31-.58,6.11.64,1.8,1.22,2.89,3.25,2.89,5.42v117.58c0,3.61-2.93,6.54-6.54,6.54Z"/>
  <path class="st0" d="M724.29,431.78c-3.61,0-6.54-2.93-6.54-6.54s2.93-6.54,6.54-6.54c6.7,0,12.15-5.45,12.15-12.15,0-3.61,2.93-6.54,6.54-6.54s6.54,2.93,6.54,6.54c0,13.91-11.32,25.23-25.23,25.23Z"/>
  <path class="st0" d="M768.21,425.24c0,3.61-2.93,6.54-6.53,6.54-6.7,0-12.16,5.44-12.16,12.14,0,1-.23,1.96-.63,2.8-1.04,2.21-3.3,3.74-5.91,3.74s-4.87-1.53-5.91-3.74c-.4-.84-.63-1.8-.63-2.8,0-4.4,1.13-8.54,3.11-12.14,2.31-4.19,5.79-7.66,9.97-9.97,3.61-1.99,7.76-3.11,12.16-3.11,3.6,0,6.53,2.93,6.53,6.54Z"/>
  <path class="st0" d="M672.89,515.89c-3.61,0-6.54-2.93-6.54-6.54,0-11.85-9.64-21.5-21.5-21.5-3.61,0-6.54-2.93-6.54-6.54s2.93-6.54,6.54-6.54c19.07,0,34.58,15.51,34.58,34.58,0,3.61-2.93,6.54-6.54,6.54Z"/>
  <path class="st0" d="M766.35,446.73h-46.73c-13.91,0-25.24,11.33-25.24,25.24s11.33,25.23,25.24,25.23h46.73c13.91,0,25.23-11.31,25.23-25.23s-11.31-25.24-25.23-25.24ZM714.95,479.44c-4.13,0-7.48-3.35-7.48-7.48s3.35-7.48,7.48-7.48,7.48,3.35,7.48,7.48-3.35,7.48-7.48,7.48ZM742.98,484.12c-6.71,0-12.15-5.44-12.15-12.15s5.44-12.15,12.15-12.15,12.15,5.44,12.15,12.15-5.44,12.15-12.15,12.15ZM771.02,479.44c-4.13,0-7.48-3.35-7.48-7.48s3.35-7.48,7.48-7.48,7.48,3.35,7.48,7.48-3.35,7.48-7.48,7.48Z"/>
</svg>